ffmpeg version 4.2.7-0ubuntu0.1 Copyright (c) 2000-2022 the FFmpeg developers
  built with gcc 9 (Ubuntu 9.4.0-1ubuntu1~20.04.1)
  configuration: --prefix=/usr --extra-version=0ubuntu0.1 --toolchain=hardened --libdir=/usr/lib/x86_64-linux-gnu --incdir=/usr/include/x86_64-linux-gnu --arch=amd64 --enable-gpl --disable-stripping --enable-avresample --disable-filter=resample --enable-avisynth --enable-gnutls --enable-ladspa --enable-libaom --enable-libass --enable-libbluray --enable-libbs2b --enable-libcaca --enable-libcdio --enable-libcodec2 --enable-libflite --enable-libfontconfig --enable-libfreetype --enable-libfribidi --enable-libgme --enable-libgsm --enable-libjack --enable-libmp3lame --enable-libmysofa --enable-libopenjpeg --enable-libopenmpt --enable-libopus --enable-libpulse --enable-librsvg --enable-librubberband --enable-libshine --enable-libsnappy --enable-libsoxr --enable-libspeex --enable-libssh --enable-libtheora --enable-libtwolame --enable-libvidstab --enable-libvorbis --enable-libvpx --enable-libwavpack --enable-libwebp --enable-libx265 --enable-libxml2 --enable-libxvid --enable-libzmq --enable-libzvbi --enable-lv2 --enable-omx --enable-openal --enable-opencl --enable-opengl --enable-sdl2 --enable-libdc1394 --enable-libdrm --enable-libiec61883 --enable-nvenc --enable-chromaprint --enable-frei0r --enable-libx264 --enable-shared
  libavutil      56. 31.100 / 56. 31.100
  libavcodec     58. 54.100 / 58. 54.100
  libavformat    58. 29.100 / 58. 29.100
  libavdevice    58.  8.100 / 58.  8.100
  libavfilter     7. 57.100 /  7. 57.100
  libavresample   4.  0.  0 /  4.  0.  0
  libswscale      5.  5.100 /  5.  5.100
  libswresample   3.  5.100 /  3.  5.100
  libpostproc    55.  5.100 / 55.  5.100
Routing option strict to both codec and muxer layer
[h264 @ 0x557c627a3f40] Reinit context to 720x1280, pix_fmt: yuvj420p
Input #0, mov,mp4,m4a,3gp,3g2,mj2, from '/var/www/html/project/media/video/original/telegram_video.mov':
  Metadata:
    major_brand     : qt  
    minor_version   : 0
    compatible_brands: qt  
    creation_time   : 2025-02-14T18:39:27.000000Z
  Duration: 00:00:25.35, start: 0.000000, bitrate: 3691 kb/s
    Stream #0:0(und): Video: h264 (High), 1 reference frame (avc1 / 0x31637661), yuvj420p(pc, bt470bg/bt470bg/smpte170m, progressive, left), 720x1280, 3135 kb/s, 22.65 fps, 24.83 tbr, 90k tbn, 180k tbc (default)
    Metadata:
      creation_time   : 2025-02-14T18:39:27.000000Z
      handler_name    : Core Media Video
      encoder         : 'avc1'
    Stream #0:1(und): Audio: aac (LC) (mp4a / 0x6134706D), 48000 Hz, stereo, fltp, 320 kb/s (default)
    Metadata:
      creation_time   : 2025-02-14T18:39:27.000000Z
      handler_name    : Core Media Audio
Input #1, png_pipe, from '/var/www/html/project/static/images/templates/logo_vertical.png':
  Duration: N/A, bitrate: N/A
    Stream #1:0: Video: png, 1 reference frame, rgba(pc), 1920x1080 [SAR 2835:2835 DAR 16:9], 25 tbr, 25 tbn, 25 tbc
[Parsed_scale_1 @ 0x557c627b5740] w:1280 h:720 flags:'bilinear' interl:0
[Parsed_scale_4 @ 0x557c62802b80] w:-1 h:720 flags:'bilinear' interl:0
[Parsed_scale_6 @ 0x557c627e2e80] w:1280 h:720 flags:'bilinear' interl:0
Stream mapping:
  Stream #0:0 (h264) -> split (graph 0)
  Stream #1:0 (png) -> scale (graph 0)
  overlay (graph 0) -> Stream #0:0 (libx264)
  Stream #0:1 -> #0:1 (aac (native) -> aac (native))
Press [q] to stop, [?] for help
[h264 @ 0x557c62864600] Reinit context to 720x1280, pix_fmt: yuvj420p
[graph_1_in_0_1 @ 0x557c627f9cc0] tb:1/48000 samplefmt:fltp samplerate:48000 chlayout:0x3
[Parsed_scale_1 @ 0x557c6287c640] w:1280 h:720 flags:'bilinear' interl:0
[Parsed_scale_4 @ 0x557c627f6640] w:-1 h:720 flags:'bilinear' interl:0
[Parsed_scale_6 @ 0x557c62886b80] w:1280 h:720 flags:'bilinear' interl:0
[graph 0 input from stream 0:0 @ 0x557c6287d000] w:720 h:1280 pixfmt:yuvj420p tb:1/90000 fr:149/6 sar:0/1 sws_param:flags=2
[graph 0 input from stream 1:0 @ 0x557c631c5580] w:1920 h:1080 pixfmt:rgba tb:1/25 fr:25/1 sar:2835/2835 sws_param:flags=2
[swscaler @ 0x557c631c6a40] deprecated pixel format used, make sure you did set range correctly
[Parsed_scale_1 @ 0x557c6287c640] w:720 h:1280 fmt:yuvj420p sar:0/1 -> w:1280 h:720 fmt:yuvj420p sar:0/1 flags:0x2
[Parsed_boxblur_2 @ 0x557c62885b00] luma_radius:36 luma_power:1 chroma_radius:18 chroma_power:1 alpha_radius:36 alpha_power:1 w:1280 chroma_w:640 h:720 chroma_h:360
[Parsed_setsar_3 @ 0x557c6287da40] w:1280 h:720 sar:0/1 dar:16/9 -> sar:1/1 dar:16/9
[swscaler @ 0x557c631e6280] deprecated pixel format used, make sure you did set range correctly
[Parsed_scale_4 @ 0x557c627f6640] w:720 h:1280 fmt:yuvj420p sar:0/1 -> w:405 h:720 fmt:yuva420p sar:0/1 flags:0x2
[Parsed_setsar_5 @ 0x557c6288a100] w:405 h:720 sar:0/1 dar:9/16 -> sar:1/1 dar:9/16
[Parsed_overlay_8 @ 0x557c62882900] main w:1280 h:720 fmt:yuvj420p overlay w:405 h:720 fmt:yuva420p
[Parsed_overlay_8 @ 0x557c62882900] [framesync @ 0x557c62882a28] Selected 1/90000 time base
[Parsed_overlay_8 @ 0x557c62882900] [framesync @ 0x557c62882a28] Sync level 2
[Parsed_scale_6 @ 0x557c62886b80] w:1920 h:1080 fmt:rgba sar:2835/2835 -> w:1280 h:720 fmt:yuva420p sar:1/1 flags:0x2
[Parsed_setsar_7 @ 0x557c62878740] w:1280 h:720 sar:1/1 dar:16/9 -> sar:1/1 dar:16/9
[Parsed_overlay_9 @ 0x557c62885640] main w:1280 h:720 fmt:yuvj420p overlay w:1280 h:720 fmt:yuva420p
[Parsed_overlay_9 @ 0x557c62885640] [framesync @ 0x557c62885768] Selected 1/90000 time base
[Parsed_overlay_9 @ 0x557c62885640] [framesync @ 0x557c62885768] Sync level 2
[libx264 @ 0x557c627f4b40] using SAR=1/1
[libx264 @ 0x557c627f4b40] using cpu capabilities: MMX2 SSE2Fast SSSE3 SSE4.2 AVX FMA3 BMI2 AVX2
[libx264 @ 0x557c627f4b40] profile High, level 3.1
[libx264 @ 0x557c627f4b40] 264 - core 155 r2917 0a84d98 - H.264/MPEG-4 AVC codec - Copyleft 2003-2018 - http://www.videolan.org/x264.html - options: cabac=1 ref=1 deblock=1:0:0 analyse=0x3:0x113 me=hex subme=2 psy=1 psy_rd=1.00:0.00 mixed_ref=0 me_range=16 chroma_me=1 trellis=0 8x8dct=1 cqm=0 deadzone=21,11 fast_pskip=1 chroma_qp_offset=0 threads=22 lookahead_threads=5 sliced_threads=0 nr=0 decimate=1 interlaced=0 bluray_compat=0 constrained_intra=0 bframes=3 b_pyramid=2 b_adapt=1 b_bias=0 direct=1 weightb=1 open_gop=0 weightp=1 keyint=250 keyint_min=24 scenecut=40 intra_refresh=0 rc_lookahead=10 rc=crf mbtree=1 crf=18.0 qcomp=0.60 qpmin=0 qpmax=69 qpstep=4 ip_ratio=1.40 aq=1:1.00
Output #0, mp4, to '/var/www/html/project/media/video/watermarks/telegram_video.mp4':
  Metadata:
    major_brand     : qt  
    minor_version   : 0
    compatible_brands: qt  
    encoder         : Lavf58.29.100
    Stream #0:0: Video: h264 (libx264), 1 reference frame (avc1 / 0x31637661), yuvj420p(pc), 1280x720 [SAR 1:1 DAR 16:9], q=-1--1, 24.83 fps, 19072 tbn, 24.83 tbc (default)
    Metadata:
      encoder         : Lavc58.54.100 libx264
    Side data:
      cpb: bitrate max/min/avg: 0/0/0 buffer size: 0 vbv_delay: -1
    Stream #0:1(und): Audio: aac (LC) (mp4a / 0x6134706D), 48000 Hz, stereo, fltp, delay 1024, 128 kb/s (default)
    Metadata:
      creation_time   : 2025-02-14T18:39:27.000000Z
      handler_name    : Core Media Audio
      encoder         : Lavc58.54.100 aac
[Parsed_overlay_8 @ 0x557c62882900] [framesync @ 0x557c62882a28] Sync level 1
[Parsed_overlay_8 @ 0x557c62882900] [framesync @ 0x557c62882a28] Sync level 0
[Parsed_overlay_9 @ 0x557c62885640] [framesync @ 0x557c62885768] Sync level 0
No more output streams to write to, finishing.
frame=  597 fps= 25 q=-1.0 Lsize=   12214kB time=00:00:25.21 bitrate=3968.0kbits/s speed=1.07x    
[AVIOContext @ 0x557c627a2280] Statistics: 0 seeks, 46 writeouts
video:11799kB audio:395kB subtitle:0kB other streams:0kB global headers:0kB muxing overhead: 0.159690%
Input file #0 (/var/www/html/project/media/video/original/telegram_video.mov):
  Input stream #0:0 (video): 617 packets read (10677488 bytes); 597 frames decoded; 
  Input stream #0:1 (audio): 1182 packets read (1008640 bytes); 1182 frames decoded (1209936 samples); 
  Total: 1799 packets (11686128 bytes) demuxed
Input file #1 (/var/www/html/project/static/images/templates/logo_vertical.png):
  Input stream #1:0 (video): 1 packets read (93903 bytes); 1 frames decoded; 
  Total: 1 packets (93903 bytes) demuxed
Output file #0 (/var/www/html/project/media/video/watermarks/telegram_video.mp4):
  Output stream #0:0 (video): 597 frames encoded; 597 packets muxed (12082603 bytes); 
  Output stream #0:1 (audio): 1182 frames encoded (1209936 samples); 1183 packets muxed (404679 bytes); 
  Total: 1780 packets (12487282 bytes) muxed
[AVIOContext @ 0x557c627b4840] Statistics: 2 seeks, 51 writeouts
[libx264 @ 0x557c627f4b40] frame I:4     Avg QP:16.28  size: 36359
[libx264 @ 0x557c627f4b40] frame P:195   Avg QP:17.92  size: 25444
[libx264 @ 0x557c627f4b40] frame B:398   Avg QP:18.48  size: 17525
[libx264 @ 0x557c627f4b40] consecutive B-frames:  6.9%  8.7% 12.1% 72.4%
[libx264 @ 0x557c627f4b40] mb I  I16..4: 32.3% 47.2% 20.5%
[libx264 @ 0x557c627f4b40] mb P  I16..4: 32.9% 42.5%  8.2%  P16..4:  8.1%  5.3%  2.2%  0.0%  0.0%    skip: 0.6%
[libx264 @ 0x557c627f4b40] mb B  I16..4: 16.7% 18.0%  1.7%  B16..8: 24.3% 12.0%  1.4%  direct:17.8%  skip: 8.0%  L0:45.1% L1:46.0% BI: 8.9%
[libx264 @ 0x557c627f4b40] 8x8 transform intra:50.1% inter:32.6%
[libx264 @ 0x557c627f4b40] coded y,uvDC,uvAC intra: 37.5% 58.9% 11.2% inter: 15.9% 73.5% 2.4%
[libx264 @ 0x557c627f4b40] i16 v,h,dc,p: 28% 30%  7% 35%
[libx264 @ 0x557c627f4b40] i8 v,h,dc,ddl,ddr,vr,hd,vl,hu: 13% 40% 14%  4%  6%  4%  9%  4%  5%
[libx264 @ 0x557c627f4b40] i4 v,h,dc,ddl,ddr,vr,hd,vl,hu: 23% 24% 15%  5%  9%  6%  8%  4%  5%
[libx264 @ 0x557c627f4b40] i8c dc,h,v,p: 38% 29% 13% 20%
[libx264 @ 0x557c627f4b40] Weighted P-Frames: Y:5.6% UV:5.1%
[libx264 @ 0x557c627f4b40] kb/s:3816.02
[aac @ 0x557c627e00c0] Qavg: 171.978
[AVIOContext @ 0x557c627ab240] Statistics: 39100215 bytes read, 1170 seeks
[AVIOContext @ 0x557c62895500] Statistics: 93903 bytes read, 0 seeks
